<?xml version="1.0" encoding="iso-8859-1"?>
<!-- Uploaded to: SVG Repo, www.svgrepo.com, Generator: SVG Repo Mixer Tools -->
<svg fill="#000000" height="800px" width="800px" version="1.1" id="Layer_1" xmlns="http://www.w3.org/2000/svg" xmlns:xlink="http://www.w3.org/1999/xlink" 
	 viewBox="0 0 330 330" xml:space="preserve">
<g id="XMLID_467_">
	<path id="XMLID_468_" d="M315,200h-5v-25c0-30.327-24.673-55-55-55s-55,24.673-55,55v18.038
		c-21.634-23.754-52.333-37.538-85-37.538c-63.411,0-115,51.589-115,115c0,8.284,6.716,15,15,15h165V315c0,8.284,6.716,15,15,15h120
		c8.284,0,15-6.716,15-15V215C330,206.716,323.284,200,315,200z M230,175c0-13.785,11.215-25,25-25c13.785,0,25,11.215,25,25v25h-50
		V175z M31.325,255.5c7.105-39.739,41.924-70,83.675-70c25.258,0.001,48.924,11.155,65,30.233V255.5H31.325z M300,300h-90v-70h5h80
		h5V300z"/>
	<path id="XMLID_474_" d="M115,125.5c34.601,0,62.75-28.149,62.75-62.75S149.601,0,115,0S52.25,28.149,52.25,62.75
		S80.399,125.5,115,125.5z M115,30c18.059,0,32.75,14.691,32.75,32.75S133.059,95.5,115,95.5S82.25,80.809,82.25,62.75
		S96.941,30,115,30z"/>
</g>
</svg>